<svg xmlns="http://www.w3.org/2000/svg" viewBox="15 15 34 34" aria-hidden="true">
  <rect x="16" y="16" width="32" height="32" rx="4" fill="#ffffff"></rect>
  <g fill="#111827">
    <rect x="18" y="18" width="10" height="10"></rect>
    <rect x="20" y="20" width="6" height="6" fill="#ffffff"></rect>
    <rect x="36" y="18" width="10" height="10"></rect>
    <rect x="38" y="20" width="6" height="6" fill="#ffffff"></rect>
    <rect x="18" y="36" width="10" height="10"></rect>
    <rect x="20" y="38" width="6" height="6" fill="#ffffff"></rect>
    <rect x="30" y="20" width="2" height="2"></rect>
    <rect x="32" y="22" width="2" height="2"></rect>
    <rect x="28" y="24" width="2" height="2"></rect>
    <rect x="34" y="26" width="2" height="2"></rect>
    <rect x="30" y="28" width="2" height="2"></rect>
    <rect x="36" y="30" width="2" height="2"></rect>
    <rect x="28" y="32" width="2" height="2"></rect>
    <rect x="32" y="34" width="2" height="2"></rect>
    <rect x="34" y="36" width="2" height="2"></rect>
    <rect x="30" y="38" width="2" height="2"></rect>
    <rect x="36" y="40" width="2" height="2"></rect>
    <rect x="40" y="34" width="2" height="2"></rect>
  </g>
</svg>
